<svg width="27" height="27" viewBox="0 0 27 27" fill="none" xmlns="http://www.w3.org/2000/svg">
<path d="M20.2799 21.1H16.4799C15.9199 21.1 14.6999 20.93 14.0499 20.28L11.0199 17.94L11.9399 16.75L15.0399 19.15C15.2899 19.39 15.9199 19.59 16.4799 19.59H20.2799C21.1799 19.59 22.1499 18.87 22.3499 18.06L24.7699 10.71C24.9299 10.27 24.8999 9.86999 24.6899 9.57999C24.4699 9.26999 24.0699 9.08999 23.5799 9.08999H19.5799C19.0599 9.08999 18.5799 8.86999 18.2499 8.48999C17.9099 8.09999 17.7599 7.57999 17.8399 7.03999L18.3399 3.82999C18.4599 3.26999 18.0799 2.63999 17.5399 2.45999C17.0499 2.27999 16.4199 2.53999 16.1999 2.85999L12.0999 8.95999L10.8599 8.12999L14.9599 2.02999C15.5899 1.08999 16.9699 0.63999 18.0499 1.04999C19.2999 1.45999 20.0999 2.83999 19.8199 4.11999L19.3299 7.26999C19.3199 7.33999 19.3199 7.43999 19.3899 7.51999C19.4399 7.56999 19.5099 7.59999 19.5899 7.59999H23.5899C24.5699 7.59999 25.4199 8.00999 25.9199 8.71999C26.4099 9.40999 26.5099 10.32 26.1899 11.2L23.7999 18.48C23.4299 19.93 21.8899 21.1 20.2799 21.1Z" fill="#292D32"/>
<path d="M9.37988 20H8.37988C6.52988 20 5.62988 19.13 5.62988 17.35V7.55002C5.62988 5.77002 6.52988 4.90002 8.37988 4.90002H9.37988C11.2299 4.90002 12.1299 5.77002 12.1299 7.55002V17.35C12.1299 19.13 11.2299 20 9.37988 20ZM8.37988 6.40002C7.28988 6.40002 7.12988 6.66002 7.12988 7.55002V17.35C7.12988 18.24 7.28988 18.5 8.37988 18.5H9.37988C10.4699 18.5 10.6299 18.24 10.6299 17.35V7.55002C10.6299 6.66002 10.4699 6.40002 9.37988 6.40002H8.37988Z" fill="#292D32"/>
</svg>
